<svg width="235" height="67" viewBox="0 0 235 67" fill="none" xmlns="http://www.w3.org/2000/svg">
<g id="facimate">
<path id="Vector" d="M0 1.87857C0 1.16305 0.504302 0.583008 1.12639 0.583008H233.874C234.496 0.583008 235 1.16305 235 1.87857V65.1208C235 65.8363 234.496 66.4163 233.874 66.4163H1.12639C0.504302 66.4163 0 65.8363 0 65.1208V1.87857Z" fill="#922C88"/>
<g id="Group">
<g id="Group_2">
<path id="Vector_2" d="M4.86328 6.1748H230.142V60.8263H4.86328V6.1748ZM7.09929 8.74664V58.2544H227.906V8.74664H7.09929Z" fill="white"/>
</g>
<g id="Group_3">
<path id="Vector_3" d="M65.2439 28.9499L46.8806 17.4263C46.7185 17.3331 46.5295 17.3331 46.3675 17.4263L27.9771 28.9499C27.8151 29.0741 27.707 29.2605 27.707 29.509V31.9628C27.707 32.3045 27.9501 32.584 28.2471 32.584H30.3535V48.5492C30.3535 48.8909 30.5966 49.1705 30.8936 49.1705H46.6105C46.9076 49.1705 47.1506 48.8909 47.1506 48.5492V44.325V44.1697C49.392 43.8591 51.1474 41.6537 51.1474 38.9825C51.1474 35.2552 49.7431 31.7764 47.2586 29.3537L46.9616 29.0431C46.7725 28.8567 46.4755 28.8567 46.2595 29.0431L45.9624 29.3537C43.5049 31.7454 42.0737 35.2552 42.0737 38.9825C42.0737 40.3181 42.5058 41.5916 43.3159 42.5856C43.532 42.8341 43.856 42.8341 44.0721 42.6166C44.2881 42.3682 44.2881 41.9954 44.0991 41.7469C43.4779 41.0015 43.1539 40.0386 43.1539 39.0136C43.1539 35.6901 44.4231 32.5529 46.6105 30.3787C48.7979 32.5529 50.0672 35.6901 50.0672 39.0136C50.0672 41.0015 48.7979 42.6477 47.1506 42.9272V42.1818V35.7522C47.1506 35.4105 46.9076 35.131 46.6105 35.131C46.3135 35.131 46.0704 35.4105 46.0704 35.7522V42.1507V44.325V47.928H31.4337V31.9317C31.4337 31.59 31.1907 31.3105 30.8936 31.3105H28.7872V29.8506L46.6105 18.6688L64.4338 29.8506V31.3105H62.3274C62.0304 31.3105 61.7873 31.59 61.7873 31.9317V47.897H50.9313C50.6343 47.897 50.3912 48.1765 50.3912 48.5182C50.3912 48.8599 50.6343 49.1394 50.9313 49.1394H62.3274C62.6245 49.1394 62.8675 48.8599 62.8675 48.5182V32.5529H64.9739C65.271 32.5529 65.514 32.2734 65.514 31.9317V29.4779C65.514 29.2605 65.406 29.0741 65.2439 28.9499Z" fill="white"/>
</g>
<g id="Group_4">
<path id="Vector_4" d="M86.3911 26.6237H79.2596V31.5155H85.4187V35.4081H79.2596V44.2376H75.3438V22.6865H86.3915V26.6239L86.3911 26.6237ZM102.249 44.2368L100.888 39.7925H93.0173L91.6558 44.2368H87.6751L94.5735 22.6858H99.3323L106.231 44.2368H102.25H102.249ZM94.1584 36.0488H99.747L96.9592 26.9062L94.1584 36.0488ZM117.342 44.5351C111.831 44.5351 107.76 40.225 107.76 33.4538C107.76 26.6826 111.831 22.3877 117.342 22.3877C121.517 22.3877 124.863 24.8485 126.198 28.9349L122.568 30.4562C121.738 27.9506 119.754 26.5039 117.342 26.5039C114.114 26.5039 111.637 29.099 111.637 33.4539C111.637 37.8089 114.114 40.4188 117.342 40.4188C119.754 40.4188 121.738 38.9572 122.568 36.4517L126.198 37.9729C124.863 42.0594 121.518 44.5351 117.342 44.5351L117.342 44.5351ZM129.388 44.2368V22.6858H133.278V44.2368H129.388ZM159.588 44.2368H155.711L154.479 27.9951L149.733 44.2368H147.217L142.472 27.9951L141.227 44.2368H137.337L138.906 22.6858H144.456L148.449 36.2129L152.495 22.6858H158.045L159.588 44.2368ZM176.198 44.2368L174.836 39.7925H166.966L165.604 44.2368H161.624L168.522 22.6858H173.281L180.179 44.2368H176.199H176.198ZM168.107 36.0488H173.696L170.908 26.9062L168.107 36.0488ZM193.859 22.6858V26.6231H189.411V44.2363H185.56V26.6231H181.087V22.6858H193.858L193.859 22.6858ZM207.668 26.6237H200.718V31.5155H206.877V35.4081H200.718V40.285H207.668V44.2372H196.802V22.6862H207.668V26.6235V26.6237Z" fill="white"/>
</g>
</g>
</g>
</svg>
