<svg width="21" height="30" viewBox="0 0 21 30" fill="none" xmlns="http://www.w3.org/2000/svg">
<g id="Group 10">
<path id="Vector" d="M14.4159 23.551L13.7324 21.5H12.9824L13.3989 23.5H6.06594L6.48244 21.5H5.73244L5.04844 23.551C4.87494 24.073 5.18244 24.5 5.73244 24.5H13.7324C14.2824 24.5 14.5899 24.073 14.4159 23.551ZM12.2324 17C12.2324 16.337 11.969 15.7011 11.5002 15.2322C11.0314 14.7634 10.3955 14.5 9.73244 14.5C9.0694 14.5 8.43351 14.7634 7.96467 15.2322C7.49583 15.7011 7.23244 16.337 7.23244 17C7.23244 19.3875 9.73244 22 9.73244 22C9.73244 22 12.2324 19.3875 12.2324 17ZM8.38244 17.03C8.38244 16.8527 8.41736 16.6772 8.48521 16.5135C8.55306 16.3497 8.65251 16.2009 8.77788 16.0756C8.90324 15.9503 9.05207 15.8509 9.21585 15.7831C9.37964 15.7153 9.55518 15.6804 9.73244 15.6805C10.0904 15.6805 10.4337 15.8227 10.6869 16.0758C10.94 16.329 11.0822 16.6723 11.0822 17.0303C11.0822 17.3882 10.94 17.7315 10.6869 17.9847C10.4337 18.2378 10.0904 18.38 9.73244 18.38C9.3744 18.38 9.03102 18.2378 8.77785 17.9846C8.52467 17.7314 8.38244 17.388 8.38244 17.03Z" fill="#ECEEF6"/>
<path id="Ellipse 44" d="M20 19.5C20 25.0228 15.5228 29.5 10 29.5C4.47715 29.5 0 25.0228 0 19.5C0 13.9772 4.47715 9.5 10 9.5C15.5228 9.5 20 13.9772 20 19.5ZM0.834579 19.5C0.834579 24.5619 4.93808 28.6654 10 28.6654C15.0619 28.6654 19.1654 24.5619 19.1654 19.5C19.1654 14.4381 15.0619 10.3346 10 10.3346C4.93808 10.3346 0.834579 14.4381 0.834579 19.5Z" fill="#ECEEF6"/>
</g>
</svg>
