<svg width="15" height="15" viewBox="0 0 15 15" fill="none" xmlns="http://www.w3.org/2000/svg">
<g id="ph:copyright-light">
<path id="Vector" d="M7.5 1.52344C6.31795 1.52344 5.16244 1.87396 4.1796 2.53067C3.19676 3.18738 2.43073 4.12079 1.97838 5.21287C1.52603 6.30494 1.40767 7.50663 1.63828 8.66597C1.86889 9.82531 2.4381 10.8902 3.27393 11.7261C4.10977 12.5619 5.17469 13.1311 6.33403 13.3617C7.49337 13.5923 8.69506 13.474 9.78713 13.0216C10.8792 12.5693 11.8126 11.8032 12.4693 10.8204C13.126 9.83756 13.4766 8.68205 13.4766 7.5C13.4747 5.91549 12.8444 4.39641 11.724 3.27599C10.6036 2.15557 9.08451 1.5253 7.5 1.52344ZM7.5 12.7734C6.45702 12.7734 5.43745 12.4642 4.57024 11.8847C3.70303 11.3052 3.02712 10.4817 2.62798 9.51806C2.22885 8.55446 2.12442 7.49415 2.32789 6.4712C2.53137 5.44826 3.03362 4.50862 3.77112 3.77112C4.50862 3.03361 5.44826 2.53137 6.47121 2.32789C7.49415 2.12441 8.55446 2.22884 9.51806 2.62798C10.4817 3.02711 11.3053 3.70302 11.8847 4.57024C12.4642 5.43745 12.7734 6.45701 12.7734 7.5C12.7719 8.89813 12.2158 10.2385 11.2272 11.2272C10.2385 12.2158 8.89813 12.7719 7.5 12.7734ZM5.50781 7.5C5.50781 7.91812 5.63937 8.32565 5.88386 8.66485C6.12834 9.00405 6.47335 9.25773 6.87002 9.38995C7.26669 9.52218 7.6949 9.52624 8.09401 9.40157C8.49311 9.2769 8.84288 9.02981 9.09375 8.69531C9.14977 8.62072 9.23313 8.57144 9.32549 8.55831C9.41785 8.54518 9.51164 8.56927 9.58623 8.62529C9.66082 8.68131 9.71011 8.76467 9.72324 8.85703C9.73637 8.94939 9.71227 9.04318 9.65625 9.11777C9.31675 9.57019 8.84351 9.90433 8.30357 10.0729C7.76363 10.2414 7.18435 10.2358 6.64776 10.0569C6.11118 9.87794 5.64449 9.53472 5.31378 9.07583C4.98308 8.61694 4.80513 8.06564 4.80513 7.5C4.80513 6.93436 4.98308 6.38306 5.31378 5.92417C5.64449 5.46528 6.11118 5.12206 6.64776 4.94312C7.18435 4.76417 7.76363 4.75858 8.30357 4.92712C8.84351 5.09567 9.31675 5.42981 9.65625 5.88223C9.71227 5.95682 9.73637 6.05061 9.72324 6.14297C9.71011 6.23533 9.66082 6.31869 9.58623 6.37471C9.51164 6.43073 9.41785 6.45482 9.32549 6.44169C9.23313 6.42856 9.14977 6.37928 9.09375 6.30469C8.84288 5.97019 8.49311 5.7231 8.09401 5.59843C7.6949 5.47376 7.26669 5.47782 6.87002 5.61004C6.47335 5.74227 6.12834 5.99595 5.88386 6.33515C5.63937 6.67435 5.50781 7.08187 5.50781 7.5Z" fill="#ECEEF6"/>
</g>
</svg>
