<svg xmlns="http://www.w3.org/2000/svg" width="10" height="11" viewBox="0 0 10 11" fill="none">
  <path d="M5.38074 3.98463C5.68212 3.98463 5.97116 4.10435 6.18427 4.31746C6.39738 4.53057 6.5171 4.81961 6.5171 5.12099C6.5171 5.22145 6.55701 5.3178 6.62805 5.38883C6.69909 5.45987 6.79543 5.49978 6.89589 5.49978C6.99635 5.49978 7.0927 5.45987 7.16374 5.38883C7.23477 5.3178 7.27468 5.22145 7.27468 5.12099C7.27468 4.61869 7.07514 4.13696 6.71996 3.78177C6.36478 3.42659 5.88304 3.22705 5.38074 3.22705C5.28028 3.22705 5.18393 3.26696 5.1129 3.338C5.04186 3.40903 5.00195 3.50538 5.00195 3.60584C5.00195 3.7063 5.04186 3.80265 5.1129 3.87368C5.18393 3.94472 5.28028 3.98463 5.38074 3.98463Z" fill="#ECEEF6"/>
  <path d="M5.5319 2.62086C6.23513 2.62086 6.90955 2.90021 7.40681 3.39747C7.90406 3.89472 8.18342 4.56915 8.18342 5.27237C8.18342 5.37283 8.22332 5.46918 8.29436 5.54022C8.3654 5.61125 8.46174 5.65116 8.5622 5.65116C8.66266 5.65116 8.75901 5.61125 8.83005 5.54022C8.90108 5.46918 8.94099 5.37283 8.94099 5.27237C8.94099 4.36822 8.58182 3.50111 7.94249 2.86178C7.30316 2.22245 6.43605 1.86328 5.5319 1.86328C5.43144 1.86328 5.33509 1.90319 5.26406 1.97423C5.19302 2.04526 5.15311 2.14161 5.15311 2.24207C5.15311 2.34253 5.19302 2.43888 5.26406 2.50991C5.33509 2.58095 5.43144 2.62086 5.5319 2.62086ZM8.84629 7.13222C8.82546 7.07141 8.78949 7.01691 8.74178 6.97383C8.69407 6.93076 8.63618 6.90054 8.57357 6.88601L6.30084 6.36707C6.23915 6.35308 6.17494 6.35477 6.11407 6.37197C6.05319 6.38917 5.9976 6.42135 5.95236 6.46555C5.89932 6.5148 5.89554 6.51858 5.64933 6.98828C4.83236 6.61183 4.17773 5.95451 3.80463 5.13601C4.28569 4.89358 4.28948 4.89358 4.33872 4.83677C4.38293 4.79152 4.4151 4.73593 4.4323 4.67506C4.44951 4.61418 4.45119 4.54997 4.4372 4.48828L3.91826 2.24207C3.90374 2.17945 3.87351 2.12157 3.83044 2.07385C3.78737 2.02614 3.73286 1.99018 3.67205 1.96934C3.58359 1.93775 3.49225 1.91491 3.39933 1.90116C3.30359 1.87896 3.20589 1.86627 3.10766 1.86328C2.64554 1.86328 2.20235 2.04686 1.87558 2.37363C1.54881 2.70039 1.36523 3.14359 1.36523 3.60571C1.36724 5.15219 1.98246 6.63475 3.07599 7.72828C4.16952 8.82181 5.65209 9.43703 7.19857 9.43904C7.42739 9.43904 7.65396 9.39397 7.86536 9.3064C8.07676 9.21884 8.26885 9.09049 8.43065 8.92869C8.59245 8.7669 8.72079 8.57481 8.80836 8.36341C8.89592 8.15201 8.94099 7.92543 8.94099 7.69661C8.94111 7.6002 8.93351 7.50393 8.91826 7.40874C8.90235 7.31465 8.87826 7.22213 8.84629 7.13222Z" fill="#ECEEF6"/>
</svg>