<svg width="12" height="13" viewBox="0 0 12 13" fill="none" xmlns="http://www.w3.org/2000/svg">
<g id="radix-icons:globe">
<g id="Group">
<path id="Vector" fill-rule="evenodd" clip-rule="evenodd" d="M6.0007 1.94021C4.79132 1.94021 3.63146 2.42064 2.7763 3.27581C1.92113 4.13097 1.4407 5.29083 1.4407 6.50021C1.4407 7.7096 1.92113 8.86946 2.7763 9.72462C3.63146 10.5798 4.79132 11.0602 6.0007 11.0602C7.21009 11.0602 8.36995 10.5798 9.22511 9.72462C10.0803 8.86946 10.5607 7.7096 10.5607 6.50021C10.5607 5.29083 10.0803 4.13097 9.22511 3.27581C8.36995 2.42064 7.21009 1.94021 6.0007 1.94021ZM0.720703 6.50021C0.720703 5.80684 0.857274 5.12025 1.12262 4.47965C1.38796 3.83905 1.77689 3.25698 2.26718 2.76669C2.75747 2.2764 3.33954 1.88748 3.98013 1.62213C4.62073 1.35679 5.30732 1.22021 6.0007 1.22021C6.69408 1.22021 7.38067 1.35679 8.02127 1.62213C8.66187 1.88748 9.24393 2.2764 9.73423 2.76669C10.2245 3.25698 10.6134 3.83905 10.8788 4.47965C11.1441 5.12025 11.2807 5.80684 11.2807 6.50021C11.2807 7.90056 10.7244 9.24355 9.73423 10.2337C8.74403 11.2239 7.40105 11.7802 6.0007 11.7802C4.60036 11.7802 3.25737 11.2239 2.26718 10.2337C1.27699 9.24355 0.720703 7.90056 0.720703 6.50021Z" fill="#ECEEF6"/>
<path id="Vector_2" fill-rule="evenodd" clip-rule="evenodd" d="M10.8012 6.82018H1.20117V6.18018H10.8012V6.82018Z" fill="#ECEEF6"/>
<path id="Vector_3" fill-rule="evenodd" clip-rule="evenodd" d="M5.68117 11.3002V1.70023H6.32117V11.3002H5.68117ZM8.30117 6.50023C8.30117 4.76183 7.67637 3.04263 6.45077 1.90583L6.83157 1.49463C8.19317 2.75863 8.86117 4.63863 8.86117 6.50023C8.86117 8.36183 8.19317 10.2426 6.83157 11.5058L6.45077 11.0946C7.67637 9.95863 8.30117 8.23863 8.30117 6.50023ZM3.20117 6.50023C3.20117 4.64103 3.84757 2.76183 5.16757 1.49783L5.55477 1.90263C4.36757 3.03863 3.76117 4.75863 3.76117 6.50023C3.76117 8.24103 4.36757 9.96183 5.55477 11.0978L5.16757 11.5026C3.84757 10.2386 3.20117 8.35863 3.20117 6.50023Z" fill="#ECEEF6"/>
<path id="Vector_4" fill-rule="evenodd" clip-rule="evenodd" d="M5.99992 3.6665C7.73592 3.6665 9.49992 3.9873 10.6959 4.6553C10.7281 4.67316 10.7564 4.69718 10.7792 4.72598C10.8021 4.75479 10.8191 4.78781 10.8292 4.82317C10.8393 4.85853 10.8423 4.89554 10.8381 4.93207C10.8339 4.96861 10.8226 5.00396 10.8047 5.0361C10.7869 5.06825 10.7628 5.09657 10.734 5.11943C10.7052 5.1423 10.6722 5.15927 10.6369 5.16937C10.6015 5.17947 10.5645 5.18251 10.528 5.17831C10.4914 5.17412 10.4561 5.16276 10.4239 5.1449C9.34392 4.5417 7.68632 4.2265 5.99992 4.2265C4.31352 4.2265 2.65592 4.5417 1.57592 5.1449C1.51099 5.18097 1.4344 5.18977 1.36299 5.16937C1.29157 5.14897 1.23119 5.10103 1.19512 5.0361C1.15905 4.97118 1.15025 4.89458 1.17065 4.82317C1.19106 4.75176 1.23899 4.69137 1.30392 4.6553C2.49992 3.9873 4.26392 3.6665 5.99992 3.6665ZM5.99992 9.1801C7.73592 9.1801 9.49992 8.8593 10.6959 8.1913C10.7281 8.17344 10.7564 8.14943 10.7792 8.12063C10.8021 8.09182 10.8191 8.0588 10.8292 8.02344C10.8393 7.98808 10.8423 7.95107 10.8381 7.91454C10.8339 7.878 10.8226 7.84265 10.8047 7.8105C10.7869 7.77836 10.7628 7.75004 10.734 7.72718C10.7052 7.70431 10.6722 7.68734 10.6369 7.67724C10.6015 7.66714 10.5645 7.6641 10.528 7.66829C10.4914 7.67249 10.4561 7.68384 10.4239 7.7017C9.34392 8.3049 7.68632 8.6201 5.99992 8.6201C4.31352 8.6201 2.65592 8.3049 1.57592 7.7017C1.54372 7.68175 1.50781 7.66854 1.47036 7.66287C1.43291 7.6572 1.3947 7.65919 1.35804 7.66871C1.32138 7.67823 1.28704 7.69509 1.25708 7.71827C1.22713 7.74145 1.20219 7.77047 1.18377 7.80357C1.16535 7.83666 1.15384 7.87315 1.14993 7.91083C1.14602 7.9485 1.1498 7.98658 1.16103 8.02275C1.17226 8.05892 1.19072 8.09244 1.21528 8.12127C1.23984 8.15011 1.26999 8.17366 1.30392 8.1905C2.49992 8.8593 4.26392 9.1801 5.99992 9.1801Z" fill="#ECEEF6"/>
</g>
</g>
</svg>
